<?xml version="1.0" encoding="utf-8"?>
<!-- Generator: Adobe Illustrator 24.2.1, SVG Export Plug-In . SVG Version: 6.00 Build 0)  -->
<svg version="1.1" id="icons" xmlns="http://www.w3.org/2000/svg" xmlns:xlink="http://www.w3.org/1999/xlink" x="0px" y="0px"
	 viewBox="0 0 256 256" style="enable-background:new 0 0 256 256;" xml:space="preserve">
<style type="text/css">
	.st0{fill:none;stroke:#3D5A80;stroke-width:7;stroke-linecap:round;stroke-miterlimit:10;}
</style>
<g>
	<path class="st0" d="M107.5,232.26H24.25c-6.49,0-11.75-5.26-11.75-11.75V67c0-6.49,5.26-11.75,11.75-11.75H41.5"/>
	<path class="st0" d="M125.5,55.26h18.25c6.49,0,11.75,5.26,11.75,11.75v113.25"/>
	<path id="XMLID_54_" class="st0" d="M99.58,40.26c-0.05,0-0.08-0.04-0.08-0.08C99.45,31.09,92.08,23.74,83,23.74
		s-16.45,7.35-16.49,16.43c0,0.05-0.04,0.08-0.08,0.08h-7.14c-4.85,0-8.78,3.93-8.78,8.78v16.69c0,0.29,0.23,0.52,0.52,0.52h63.95
		c0.29,0,0.52-0.23,0.52-0.52V49.04c0-4.85-3.93-8.78-8.78-8.78H99.58z"/>
	<line id="XMLID_53_" class="st0" x1="81.5" y1="39.26" x2="85.5" y2="39.26"/>
	<polyline id="XMLID_296_" class="st0" points="38.27,102.12 45.17,109.27 59.47,94.97 	"/>
	<polyline id="XMLID_57_" class="st0" points="38.27,146.98 45.17,154.12 59.47,139.83 	"/>
	<polyline id="XMLID_58_" class="st0" points="38.27,191.83 45.17,198.98 59.47,184.68 	"/>
	<line class="st0" x1="75.5" y1="96.26" x2="129.5" y2="96.26"/>
	<line class="st0" x1="75.5" y1="111.26" x2="105.5" y2="111.26"/>
	<line class="st0" x1="75.5" y1="141.26" x2="129.5" y2="141.26"/>
	<line class="st0" x1="75.5" y1="156.26" x2="105.5" y2="156.26"/>
	<path class="st0" d="M142.5,232.26H123.5c-1.1,0-2-0.89-2-2v-59.01c0-1.1,0.89-2,2-2h19.01c1.1,0,2,0.89,2,2v59.01
		C144.5,231.36,143.61,232.26,142.5,232.26z"/>
	<path class="st0" d="M112.5,222.26h-6.34c-0.92,0-1.66-0.74-1.66-1.66v-38.67c0-0.92,0.74-1.66,1.66-1.66h6.34"/>
	<path class="st0" d="M205.5,232.26h19.01c1.1,0,2-0.89,2-2v-59.01c0-1.1-0.89-2-2-2H205.5c-1.1,0-2,0.89-2,2v59.01
		C203.5,231.36,204.39,232.26,205.5,232.26z"/>
	<path class="st0" d="M235.5,222.26h6.34c0.92,0,1.66-0.74,1.66-1.66v-38.67c0-0.92-0.74-1.66-1.66-1.66h-6.34"/>
	<rect x="144.5" y="193.26" class="st0" width="59" height="18"/>
</g>
</svg>
